<svg xmlns="http://www.w3.org/2000/svg" width="375" height="175" viewBox="130 110 80 220" version="1.0"><path fill="#28398c" d="M 310.597656 198.769531 C 310.925781 195.878906 310.804688 193.128906 310.769531 190.386719 C 310.75 189.03125 311.265625 188.550781 312.578125 188.523438 C 326.222656 188.242188 340.03125 177.847656 342.207031 160.945312 C 342.457031 159.019531 342.230469 158.726562 340.226562 158.707031 C 337.601562 158.683594 334.976562 158.617188 332.355469 158.679688 C 331.015625 158.714844 330.433594 158.191406 330.070312 156.910156 C 328.503906 151.433594 326.066406 146.429688 321.75 142.53125 C 319.136719 140.171875 316.078125 138.816406 312.570312 138.382812 C 311.40625 138.238281 311.03125 138.613281 311.011719 139.722656 C 310.910156 145.332031 310.820312 150.941406 310.621094 156.550781 C 310.558594 158.246094 311.636719 158.296875 312.730469 158.316406 C 317.609375 158.417969 322.488281 158.476562 327.367188 158.527344 C 330.964844 158.566406 330.964844 158.550781 330.371094 162.128906 C 328.914062 170.9375 321.007812 178.148438 312.113281 178.785156 C 309.585938 178.964844 309.335938 178.746094 309.433594 176.25 C 309.625 171.3125 309.835938 166.378906 310.050781 161.445312 C 310.167969 158.765625 310.140625 158.757812 307.375 158.695312 C 302.191406 158.582031 297.011719 158.394531 291.828125 158.304688 C 290.496094 158.28125 290.03125 157.933594 290.1875 156.472656 C 291.261719 146.554688 298.890625 139.09375 308.914062 138.355469 C 310.132812 138.265625 310.753906 137.847656 310.761719 136.644531 C 310.785156 133.777344 310.765625 130.910156 310.796875 128.042969 C 310.808594 126.746094 309.960938 126.746094 309.058594 126.792969 C 302.761719 127.128906 297.160156 129.363281 292.25 133.234375 C 284.78125 139.121094 280.875 146.925781 280.308594 156.382812 C 280.222656 157.808594 279.761719 158.3125 278.359375 158.292969 C 274.757812 158.234375 271.15625 158.234375 267.558594 158.296875 C 266.15625 158.320312 265.664062 157.898438 265.699219 156.398438 C 266.148438 135.496094 281.144531 117.421875 301.667969 113.046875 C 304.246094 112.5 306.859375 112.382812 309.453125 112.035156 C 310.996094 111.828125 311.683594 112.347656 311.648438 114.019531 C 311.566406 117.972656 311.621094 121.929688 311.621094 126.035156 C 314.195312 126.304688 316.65625 126.585938 319.070312 127.234375 C 331.722656 130.625 341.109375 141.574219 342.554688 154.523438 C 343.011719 158.605469 342.128906 158.027344 346.453125 158.101562 C 349.320312 158.152344 352.1875 158.179688 355.054688 158.144531 C 356.394531 158.128906 356.894531 158.632812 356.824219 159.992188 C 356.324219 169.878906 353.015625 178.710938 346.722656 186.332031 C 338.4375 196.378906 327.792969 202.046875 314.734375 203.003906 C 313.4375 203.097656 311.921875 203.917969 310.886719 202.816406 C 309.902344 201.773438 310.992188 200.222656 310.597656 198.769531 Z M 310.597656 198.769531 " fill-opacity="1" fill-rule="nonzero"/><path fill="#28398c" d="M 187.328125 235.570312 C 183.824219 235.566406 180.488281 235.566406 177.214844 235.566406 C 176.890625 234.503906 177.523438 234.082031 177.917969 233.585938 C 178.75 232.53125 179.746094 231.59375 180.46875 230.476562 C 182.105469 227.945312 184.09375 226.351562 187.355469 226.921875 C 188.945312 227.199219 188.839844 225.902344 188.839844 224.847656 C 188.835938 215.273438 188.773438 205.695312 188.855469 196.117188 C 188.894531 191.378906 188.382812 186.617188 189.53125 181.910156 C 192.324219 170.460938 202.476562 162.175781 214.25 161.828125 C 228.519531 161.40625 240.980469 173.421875 241 187.71875 C 241.027344 212.121094 241.003906 236.519531 241 260.921875 C 241 263.4375 240.988281 263.4375 238.449219 263.449219 C 237.105469 263.457031 235.753906 263.339844 234.425781 263.480469 C 232.726562 263.660156 232.394531 262.917969 232.40625 261.382812 C 232.46875 253.515625 232.382812 245.644531 232.46875 237.773438 C 232.488281 235.976562 231.882812 235.511719 230.15625 235.523438 C 220.03125 235.59375 209.90625 235.597656 199.777344 235.523438 C 197.964844 235.507812 197.332031 236 197.355469 237.886719 C 197.445312 245.570312 197.390625 253.257812 197.378906 260.945312 C 197.375 263.445312 197.363281 263.445312 194.808594 263.453125 C 193.464844 263.453125 192.117188 263.371094 190.78125 263.46875 C 189.238281 263.578125 188.804688 262.917969 188.8125 261.441406 C 188.863281 253.511719 188.835938 245.582031 188.828125 237.652344 C 188.824219 236.695312 189.019531 235.570312 187.328125 235.570312 M 197.394531 192.078125 C 197.390625 202.878906 197.390625 213.683594 197.386719 224.484375 C 197.386719 226.953125 197.390625 226.96875 199.777344 226.96875 C 209.847656 226.972656 219.917969 226.972656 229.988281 226.960938 C 232.417969 226.960938 232.429688 226.945312 232.429688 224.523438 C 232.433594 212.195312 232.433594 199.867188 232.429688 187.539062 C 232.429688 186.929688 232.449219 186.3125 232.363281 185.710938 C 231.171875 177.34375 224.261719 170.863281 216.082031 170.421875 C 207.117188 169.945312 199.894531 175.332031 197.796875 184.058594 C 197.191406 186.585938 197.464844 189.15625 197.394531 192.078125 Z M 197.394531 192.078125 " fill-opacity="1" fill-rule="nonzero"/><path fill="#28398c" d="M 168.9375 218.722656 C 163.761719 226.71875 156.46875 231.605469 147.207031 234.351562 C 155.382812 243.976562 163.398438 253.417969 171.566406 263.035156 C 169.90625 263.714844 168.496094 263.25 167.164062 263.46875 C 162.421875 264.242188 159.222656 262.445312 156.257812 258.5625 C 150.753906 251.347656 144.550781 244.660156 138.765625 237.652344 C 137.3125 235.886719 135.84375 235.054688 133.511719 235.1875 C 129.242188 235.433594 129.730469 234.609375 129.714844 239.019531 C 129.691406 246.34375 129.710938 253.667969 129.710938 260.988281 C 129.710938 263.457031 129.707031 263.457031 127.164062 263.460938 C 125.640625 263.460938 124.113281 263.410156 122.589844 263.476562 C 121.460938 263.527344 121.03125 263.058594 121.109375 261.972656 C 121.144531 261.425781 121.109375 260.875 121.109375 260.324219 C 121.109375 231.949219 121.109375 203.574219 121.109375 175.199219 C 121.109375 172.539062 121.101562 172.539062 118.367188 172.539062 C 115.988281 172.535156 113.609375 172.550781 111.226562 172.53125 C 110.578125 172.523438 109.882812 172.675781 109.289062 172.207031 C 109.011719 171.539062 109.546875 171.195312 109.875 170.796875 C 111.421875 168.910156 113.019531 167.066406 114.535156 165.15625 C 115.199219 164.316406 115.933594 163.929688 117.019531 163.933594 C 125.015625 163.972656 133.011719 163.832031 141.003906 164 C 156.101562 164.320312 170.40625 176.480469 173.6875 191.425781 C 175.820312 201.160156 174.195312 210.171875 168.9375 218.722656 M 152.085938 175.855469 C 150.363281 174.921875 148.546875 174.238281 146.699219 173.601562 C 142.003906 171.992188 137.160156 172.675781 132.367188 172.550781 C 129.71875 172.480469 129.707031 172.535156 129.707031 175.101562 C 129.707031 191.441406 129.710938 207.78125 129.714844 224.121094 C 129.714844 224.546875 129.734375 224.972656 129.726562 225.398438 C 129.714844 226.230469 130.121094 226.636719 130.949219 226.628906 C 135.035156 226.585938 139.183594 227.003906 143.1875 226.421875 C 155.722656 224.601562 164.492188 215.132812 165.859375 202.480469 C 167.058594 191.390625 161.925781 181.339844 152.085938 175.855469 Z M 152.085938 175.855469 " fill-opacity="1" fill-rule="nonzero"/><path fill="#28398c" d="M 290.320312 228.871094 C 290.324219 208.003906 290.324219 187.320312 290.324219 166.636719 C 290.324219 163.957031 290.328125 163.953125 293.078125 163.949219 C 294.480469 163.949219 295.882812 163.992188 297.285156 163.941406 C 298.441406 163.902344 298.992188 164.34375 298.925781 165.539062 C 298.878906 166.328125 298.921875 167.125 298.921875 167.917969 C 298.921875 199.523438 298.921875 231.128906 298.910156 262.734375 C 298.910156 263.4375 299.117188 264.183594 298.390625 265.277344 C 284.878906 241.507812 271.488281 217.960938 258.101562 194.414062 C 258.003906 194.453125 257.910156 194.496094 257.8125 194.539062 C 257.8125 199.699219 257.816406 204.859375 257.8125 210.015625 C 257.8125 226.980469 257.8125 243.941406 257.804688 260.902344 C 257.804688 263.445312 257.796875 263.449219 255.28125 263.453125 C 253.757812 263.457031 252.230469 263.425781 250.707031 263.449219 C 249.71875 263.464844 249.226562 263.058594 249.277344 262.039062 C 249.300781 261.554688 249.269531 261.0625 249.269531 260.578125 C 249.265625 228.542969 249.261719 196.511719 249.273438 164.476562 C 249.273438 163.855469 249.023438 163.152344 249.796875 162.324219 C 263.222656 185.992188 276.582031 209.539062 289.9375 233.085938 C 290.066406 233.054688 290.195312 233.023438 290.320312 232.988281 C 290.320312 231.675781 290.320312 230.363281 290.320312 228.871094 Z M 290.320312 228.871094 " fill-opacity="1" fill-rule="nonzero"/><path fill="#28398c" d="M 65.246094 166.140625 C 78.207031 171.371094 86.019531 180.800781 88.085938 194.425781 C 89.738281 205.320312 86.992188 215.222656 79.328125 223.519531 C 71.945312 231.515625 62.878906 235.457031 51.992188 235.242188 C 49.125 235.183594 46.253906 235.292969 43.390625 235.207031 C 41.933594 235.167969 41.320312 235.589844 41.304688 237.148438 C 41.234375 244.828125 41.160156 252.507812 41.328125 260.1875 C 41.398438 263.453125 41.347656 263.507812 38.191406 263.433594 C 36.453125 263.394531 34.238281 264.210938 33.097656 263.015625 C 32.050781 261.914062 32.832031 259.753906 32.832031 258.0625 C 32.800781 230.914062 32.804688 203.761719 32.800781 176.613281 C 32.800781 176.125 32.808594 175.636719 32.796875 175.148438 C 32.738281 172.714844 32.570312 172.546875 30.191406 172.542969 C 27.199219 172.539062 24.210938 172.554688 21.222656 172.539062 C 20.515625 172.535156 19.761719 172.679688 18.894531 171.960938 C 20.207031 170.402344 21.664062 169.003906 22.707031 167.347656 C 24.519531 164.476562 26.953125 163.773438 30.242188 163.875 C 38.042969 164.113281 45.855469 163.957031 53.667969 163.960938 C 57.613281 163.960938 61.414062 164.757812 65.246094 166.140625 M 41.136719 208.921875 C 41.136719 214.226562 41.167969 219.53125 41.113281 224.835938 C 41.097656 226.175781 41.539062 226.691406 42.898438 226.667969 C 46.796875 226.601562 50.703125 226.707031 54.601562 226.582031 C 58.503906 226.453125 62.21875 225.382812 65.480469 223.242188 C 74.503906 217.3125 78.511719 208.796875 78.273438 198.089844 C 78.003906 185.964844 69.058594 175.226562 57.136719 172.945312 C 52.609375 172.078125 48.011719 172.765625 43.457031 172.5 C 41.5625 172.390625 41.085938 173.078125 41.097656 174.898438 C 41.171875 186.117188 41.136719 197.335938 41.136719 208.921875 Z M 41.136719 208.921875 " fill-opacity="1" fill-rule="nonzero"/><path fill="#28398c" d="M 101.984375 180.132812 C 102.921875 179.296875 103.066406 179.824219 103.070312 180.605469 C 103.078125 182.253906 103.09375 183.902344 103.097656 185.546875 C 103.140625 207.203125 103.191406 228.859375 103.214844 250.515625 C 103.21875 254.296875 103.078125 258.074219 103.089844 261.855469 C 103.09375 263.027344 102.753906 263.511719 101.535156 263.46875 C 99.707031 263.398438 97.875 263.398438 96.046875 263.480469 C 94.789062 263.53125 94.46875 262.9375 94.484375 261.824219 C 94.523438 259.261719 94.503906 256.699219 94.503906 254.136719 C 94.507812 233.273438 94.519531 212.40625 94.480469 191.542969 C 94.476562 189.921875 94.855469 188.625 95.941406 187.394531 C 98 185.066406 99.925781 182.617188 101.984375 180.132812 Z M 101.984375 180.132812 " fill-opacity="1" fill-rule="nonzero"/><path fill="#28398c" d="M 102.625 164.089844 C 103.480469 165.355469 102.945312 166.65625 103.03125 167.910156 C 103.121094 169.183594 102.945312 170.480469 103.074219 171.75 C 103.300781 173.964844 102.640625 175.703125 101.082031 177.347656 C 98.964844 179.582031 97.101562 182.0625 95.148438 184.414062 C 94.242188 183.886719 94.5 183.207031 94.5 182.644531 C 94.488281 177.15625 94.566406 171.664062 94.476562 166.175781 C 94.449219 164.382812 95.074219 163.796875 96.8125 163.925781 C 98.691406 164.066406 100.589844 164.003906 102.625 164.089844 Z M 102.625 164.089844 " fill-opacity="1" fill-rule="nonzero"/><g fill="#00357a" fill-opacity="1"><g transform="translate(125.061295, 298.817179)"><g><path d="M 11.265625 0.390625 C 9.210938 0.390625 7.46875 -0.0820312 6.03125 -1.03125 C 4.59375 -1.988281 3.492188 -3.296875 2.734375 -4.953125 C 1.972656 -6.617188 1.59375 -8.539062 1.59375 -10.71875 C 1.59375 -12.9375 2.003906 -14.875 2.828125 -16.53125 C 3.648438 -18.1875 4.804688 -19.472656 6.296875 -20.390625 C 7.796875 -21.304688 9.546875 -21.765625 11.546875 -21.765625 C 13.335938 -21.765625 14.953125 -21.347656 16.390625 -20.515625 C 17.835938 -19.679688 18.9375 -18.484375 19.6875 -16.921875 L 17.03125 -15.96875 C 16.550781 -16.925781 15.835938 -17.707031 14.890625 -18.3125 C 13.941406 -18.925781 12.773438 -19.234375 11.390625 -19.234375 C 10.128906 -19.234375 8.992188 -18.910156 7.984375 -18.265625 C 6.972656 -17.628906 6.164062 -16.675781 5.5625 -15.40625 C 4.96875 -14.132812 4.671875 -12.570312 4.671875 -10.71875 C 4.671875 -8.925781 4.953125 -7.390625 5.515625 -6.109375 C 6.085938 -4.828125 6.878906 -3.84375 7.890625 -3.15625 C 8.898438 -2.476562 10.066406 -2.140625 11.390625 -2.140625 C 12.097656 -2.140625 12.820312 -2.222656 13.5625 -2.390625 C 14.3125 -2.566406 14.992188 -2.863281 15.609375 -3.28125 C 16.234375 -3.695312 16.738281 -4.265625 17.125 -4.984375 C 17.507812 -5.710938 17.703125 -6.632812 17.703125 -7.75 L 17.703125 -8.453125 L 11.453125 -8.453125 L 11.453125 -11.046875 L 20.546875 -11.046875 L 20.546875 0 L 18.8125 0 L 18.015625 -2.6875 C 17.328125 -1.601562 16.390625 -0.816406 15.203125 -0.328125 C 14.023438 0.148438 12.710938 0.390625 11.265625 0.390625 Z M 11.265625 0.390625 "/></g></g></g><g fill="#00357a" fill-opacity="1"><g transform="translate(147.775711, 298.817179)"><g><path d="M 6.6875 0.390625 C 5.6875 0.390625 4.769531 0.207031 3.9375 -0.15625 C 3.101562 -0.519531 2.441406 -1.039062 1.953125 -1.71875 C 1.460938 -2.40625 1.21875 -3.226562 1.21875 -4.1875 C 1.21875 -5.445312 1.660156 -6.4375 2.546875 -7.15625 C 3.429688 -7.882812 4.675781 -8.445312 6.28125 -8.84375 C 7.894531 -9.238281 9.78125 -9.554688 11.9375 -9.796875 C 11.976562 -11.140625 11.707031 -12.171875 11.125 -12.890625 C 10.550781 -13.617188 9.628906 -13.984375 8.359375 -13.984375 C 7.390625 -13.984375 6.601562 -13.765625 6 -13.328125 C 5.394531 -12.890625 5.003906 -12.285156 4.828125 -11.515625 L 2.234375 -12.28125 C 2.660156 -13.5 3.421875 -14.441406 4.515625 -15.109375 C 5.617188 -15.785156 6.882812 -16.125 8.3125 -16.125 C 10.507812 -16.125 12.113281 -15.609375 13.125 -14.578125 C 14.144531 -13.546875 14.65625 -11.921875 14.65625 -9.703125 L 14.65625 -5.984375 C 14.65625 -4.660156 14.707031 -3.519531 14.8125 -2.5625 C 14.914062 -1.601562 15.046875 -0.75 15.203125 0 L 12.734375 0 L 12.09375 -2.171875 C 11.625 -1.378906 10.953125 -0.753906 10.078125 -0.296875 C 9.203125 0.160156 8.070312 0.390625 6.6875 0.390625 Z M 7.265625 -1.765625 C 8.097656 -1.765625 8.882812 -1.910156 9.625 -2.203125 C 10.375 -2.503906 10.984375 -3.007812 11.453125 -3.71875 C 11.921875 -4.4375 12.15625 -5.414062 12.15625 -6.65625 L 12.15625 -7.640625 C 10.539062 -7.472656 9.132812 -7.265625 7.9375 -7.015625 C 6.738281 -6.773438 5.8125 -6.4375 5.15625 -6 C 4.507812 -5.5625 4.1875 -4.976562 4.1875 -4.25 C 4.1875 -3.507812 4.457031 -2.910156 5 -2.453125 C 5.550781 -1.992188 6.304688 -1.765625 7.265625 -1.765625 Z M 7.265625 -1.765625 "/></g></g></g><g fill="#00357a" fill-opacity="1"><g transform="translate(164.603571, 298.817179)"><g><path d="M 1.1875 5.15625 L 1.1875 2.78125 L 2.265625 2.78125 C 3.035156 2.78125 3.625 2.722656 4.03125 2.609375 C 4.4375 2.492188 4.757812 2.238281 5 1.84375 C 5.25 1.445312 5.492188 0.84375 5.734375 0.03125 L 0 -15.84375 L 2.96875 -15.84375 L 6.875 -3.609375 L 10.78125 -15.84375 L 13.734375 -15.84375 L 8.09375 0.703125 C 7.707031 1.835938 7.316406 2.726562 6.921875 3.375 C 6.535156 4.03125 6.007812 4.488281 5.34375 4.75 C 4.6875 5.019531 3.757812 5.15625 2.5625 5.15625 Z M 1.1875 5.15625 "/></g></g></g><g fill="#00357a" fill-opacity="1"><g transform="translate(178.328195, 298.817179)"><g><path d="M 2.234375 0 L 2.234375 -15.875 L 4.1875 -15.875 L 5.0625 -12.921875 C 5.613281 -13.890625 6.363281 -14.664062 7.3125 -15.25 C 8.257812 -15.832031 9.394531 -16.125 10.71875 -16.125 L 10.71875 -13.34375 C 10.570312 -13.34375 10.414062 -13.34375 10.25 -13.34375 C 10.09375 -13.34375 9.941406 -13.332031 9.796875 -13.3125 C 7.984375 -13.164062 6.71875 -12.535156 6 -11.421875 C 5.28125 -10.316406 4.921875 -8.78125 4.921875 -6.8125 L 4.921875 0 Z M 2.234375 0 "/></g></g></g><g fill="#00357a" fill-opacity="1"><g transform="translate(189.205518, 298.817179)"><g><path d="M 4.984375 -18.875 C 4.453125 -18.875 3.988281 -19.070312 3.59375 -19.46875 C 3.207031 -19.863281 3.015625 -20.335938 3.015625 -20.890625 C 3.015625 -21.453125 3.207031 -21.921875 3.59375 -22.296875 C 3.988281 -22.679688 4.453125 -22.875 4.984375 -22.875 C 5.546875 -22.875 6.023438 -22.679688 6.421875 -22.296875 C 6.816406 -21.921875 7.015625 -21.453125 7.015625 -20.890625 C 7.015625 -20.335938 6.816406 -19.863281 6.421875 -19.46875 C 6.023438 -19.070312 5.546875 -18.875 4.984375 -18.875 Z M 3.640625 0 L 3.640625 -13.734375 L 1.4375 -13.734375 L 1.4375 -15.875 L 6.34375 -15.875 L 6.34375 0 Z M 3.640625 0 "/></g></g></g><g fill="#00357a" fill-opacity="1"><g transform="translate(198.099327, 298.817179)"><g><path d="M 2.234375 0 L 2.234375 -15.875 L 4.21875 -15.875 L 4.921875 -13.46875 C 5.367188 -14.21875 5.984375 -14.847656 6.765625 -15.359375 C 7.546875 -15.867188 8.523438 -16.125 9.703125 -16.125 C 10.910156 -16.125 11.890625 -15.878906 12.640625 -15.390625 C 13.390625 -14.898438 13.929688 -14.21875 14.265625 -13.34375 C 14.910156 -14.320312 15.6875 -15.03125 16.59375 -15.46875 C 17.5 -15.90625 18.503906 -16.125 19.609375 -16.125 C 21.453125 -16.125 22.765625 -15.5625 23.546875 -14.4375 C 24.335938 -13.320312 24.734375 -11.859375 24.734375 -10.046875 L 24.734375 0 L 22.046875 0 L 22.046875 -9.25 C 22.046875 -10.0625 21.960938 -10.8125 21.796875 -11.5 C 21.640625 -12.195312 21.320312 -12.757812 20.84375 -13.1875 C 20.363281 -13.613281 19.632812 -13.828125 18.65625 -13.828125 C 17.5 -13.828125 16.570312 -13.382812 15.875 -12.5 C 15.1875 -11.613281 14.84375 -10.316406 14.84375 -8.609375 L 14.84375 0 L 12.15625 0 L 12.15625 -9.25 C 12.15625 -10.0625 12.078125 -10.8125 11.921875 -11.5 C 11.765625 -12.195312 11.441406 -12.757812 10.953125 -13.1875 C 10.472656 -13.613281 9.742188 -13.828125 8.765625 -13.828125 C 7.617188 -13.828125 6.691406 -13.382812 5.984375 -12.5 C 5.273438 -11.613281 4.921875 -10.316406 4.921875 -8.609375 L 4.921875 0 Z M 2.234375 0 "/></g></g></g><g fill="#00357a" fill-opacity="1"><g transform="translate(224.652777, 298.817179)"><g><path d="M 8.984375 0.390625 C 7.328125 0.390625 5.921875 0.0195312 4.765625 -0.71875 C 3.617188 -1.457031 2.738281 -2.445312 2.125 -3.6875 C 1.519531 -4.9375 1.21875 -6.34375 1.21875 -7.90625 C 1.21875 -9.59375 1.554688 -11.046875 2.234375 -12.265625 C 2.921875 -13.492188 3.84375 -14.441406 5 -15.109375 C 6.164062 -15.785156 7.472656 -16.125 8.921875 -16.125 C 10.179688 -16.125 11.289062 -15.875 12.25 -15.375 C 13.21875 -14.875 14.015625 -14.203125 14.640625 -13.359375 C 15.265625 -12.515625 15.722656 -11.554688 16.015625 -10.484375 C 16.304688 -9.421875 16.40625 -8.328125 16.3125 -7.203125 L 4.09375 -7.203125 C 4.132812 -5.878906 4.425781 -4.832031 4.96875 -4.0625 C 5.519531 -3.289062 6.164062 -2.75 6.90625 -2.4375 C 7.65625 -2.132812 8.347656 -1.984375 8.984375 -1.984375 C 9.890625 -1.984375 10.644531 -2.125 11.25 -2.40625 C 11.851562 -2.695312 12.335938 -3.078125 12.703125 -3.546875 L 15.296875 -2.78125 C 14.722656 -1.863281 13.898438 -1.101562 12.828125 -0.5 C 11.765625 0.09375 10.484375 0.390625 8.984375 0.390625 Z M 4.125 -9.34375 L 13.46875 -9.34375 C 13.46875 -10.09375 13.28125 -10.804688 12.90625 -11.484375 C 12.539062 -12.171875 12.019531 -12.734375 11.34375 -13.171875 C 10.675781 -13.609375 9.867188 -13.828125 8.921875 -13.828125 C 8.140625 -13.828125 7.394531 -13.675781 6.6875 -13.375 C 5.976562 -13.070312 5.394531 -12.585938 4.9375 -11.921875 C 4.476562 -11.265625 4.207031 -10.40625 4.125 -9.34375 Z M 4.125 -9.34375 "/></g></g></g><g fill="#00357a" fill-opacity="1"><g transform="translate(241.896539, 298.817179)"><g><path d="M 2.234375 0 L 2.234375 -15.875 L 4.21875 -15.875 L 4.921875 -13.46875 C 5.367188 -14.21875 6 -14.847656 6.8125 -15.359375 C 7.625 -15.867188 8.703125 -16.125 10.046875 -16.125 C 11.960938 -16.125 13.316406 -15.5625 14.109375 -14.4375 C 14.898438 -13.320312 15.296875 -11.859375 15.296875 -10.046875 L 15.296875 0 L 12.609375 0 L 12.609375 -9.25 C 12.609375 -10.0625 12.53125 -10.8125 12.375 -11.5 C 12.226562 -12.195312 11.90625 -12.757812 11.40625 -13.1875 C 10.90625 -13.613281 10.144531 -13.828125 9.125 -13.828125 C 7.820312 -13.828125 6.796875 -13.382812 6.046875 -12.5 C 5.296875 -11.613281 4.921875 -10.316406 4.921875 -8.609375 L 4.921875 0 Z M 2.234375 0 "/></g></g></g><g fill="#00357a" fill-opacity="1"><g transform="translate(259.36425, 298.817179)"><g><path d="M 2.234375 0 L 2.234375 -21.375 L 4.921875 -21.375 L 4.921875 -8.734375 L 11.328125 -15.875 L 14.5625 -15.875 L 8.578125 -9.3125 L 15.359375 0 L 12.0625 0 L 6.78125 -7.328125 L 4.921875 -5.3125 L 4.921875 0 Z M 2.234375 0 "/></g></g></g><g fill="#00357a" fill-opacity="1"><g transform="translate(275.0404, 298.817179)"><g><path d="M 7.265625 0.390625 C 6.023438 0.390625 5.03125 0.128906 4.28125 -0.390625 C 3.539062 -0.921875 3.003906 -1.648438 2.671875 -2.578125 C 2.335938 -3.503906 2.171875 -4.566406 2.171875 -5.765625 L 2.171875 -15.90625 L 4.859375 -15.90625 L 4.859375 -6.40625 C 4.859375 -5.226562 5 -4.316406 5.28125 -3.671875 C 5.5625 -3.035156 5.953125 -2.59375 6.453125 -2.34375 C 6.953125 -2.101562 7.53125 -1.984375 8.1875 -1.984375 C 9.445312 -1.984375 10.429688 -2.425781 11.140625 -3.3125 C 11.859375 -4.195312 12.21875 -5.484375 12.21875 -7.171875 L 12.21875 -15.90625 L 14.90625 -15.90625 L 14.90625 0 L 12.890625 0 L 12.21875 -2.296875 C 11.769531 -1.535156 11.160156 -0.894531 10.390625 -0.375 C 9.628906 0.132812 8.585938 0.390625 7.265625 0.390625 Z M 7.265625 0.390625 "/></g></g></g><g fill="#00357a" fill-opacity="1"><g transform="translate(292.18818, 298.817179)"><g><path d="M 5.984375 0 C 4.984375 0 4.207031 -0.0976562 3.65625 -0.296875 C 3.113281 -0.503906 2.738281 -0.894531 2.53125 -1.46875 C 2.332031 -2.050781 2.234375 -2.882812 2.234375 -3.96875 L 2.234375 -21.34375 L 4.921875 -21.34375 L 4.921875 -4.421875 C 4.921875 -3.609375 5.003906 -3.0625 5.171875 -2.78125 C 5.347656 -2.507812 5.8125 -2.375 6.5625 -2.375 L 7.171875 -2.375 L 7.171875 0 Z M 5.984375 0 "/></g></g></g></svg>